<svg width="40" height="37" viewBox="0 0 40 37" fill="none" xmlns="http://www.w3.org/2000/svg">
<path d="M18.5005 26.5396C18.5005 25.7116 19.1725 25.0276 20.0005 25.0276C20.8285 25.0276 21.5005 25.6896 21.5005 26.5176V26.5396C21.5005 27.3676 20.8285 28.0397 20.0005 28.0397C19.1725 28.0397 18.5005 27.3676 18.5005 26.5396Z" fill="#252525"/>
<path d="M5.59119 34.8363H34.5552C36.8492 34.7163 38.6132 32.7623 38.4952 30.4683C38.4692 30.0043 38.3692 29.5462 38.1932 29.1182L23.6392 3.64625C22.5272 1.63625 19.9972 0.908251 17.9872 2.02225C17.3032 2.39825 16.7392 2.96225 16.3612 3.64625L1.80719 29.1182C0.943192 31.2462 1.96719 33.6703 4.09319 34.5363C4.52519 34.7103 4.98119 34.8103 5.44519 34.8363" stroke="#252525" stroke-width="3" stroke-linecap="round" stroke-linejoin="round"/>
<path d="M19.98 20.7927V14.5927" stroke="currentColor" stroke-width="3" stroke-linecap="round" stroke-linejoin="round"/>
</svg>
