<?xml version="1.0" encoding="UTF-8"?>
<svg xmlns="http://www.w3.org/2000/svg" xmlns:xlink="http://www.w3.org/1999/xlink" width="48" height="48" viewBox="0 0 48 48" fill="none">
<path fill-rule="evenodd" fill="rgb(0%, 0%, 0%)" fill-opacity="1" d="M 429.5 1.101562 C 309.101562 6.203125 194.199219 61 114.101562 151.5 C 44.800781 229.800781 5.203125 327.5 1.101562 430.699219 C -2 507 13.203125 580.097656 45.902344 646.597656 C 68.902344 693.496094 95.300781 730.398438 132.402344 767.597656 C 187.203125 822.398438 250.902344 860.097656 325.902344 882.097656 C 333.300781 884.199219 339.703125 885.996094 340.203125 885.996094 C 340.601562 885.996094 341.003906 818.996094 341.003906 736.996094 L 341.003906 587.996094 L 248.003906 587.996094 L 248.003906 449.996094 L 340.800781 449.996094 L 341.300781 402.195312 C 341.800781 351.296875 342.5 342.09375 347.601562 317.09375 C 359.300781 259.09375 384.902344 220.292969 428.101562 194.992188 C 463.5 174.191406 521.300781 163.390625 578.800781 166.792969 C 607.199219 168.492188 634.5 171.894531 653.800781 175.992188 L 659 177.191406 L 659 303.089844 L 652.800781 302.390625 C 641.5 301.089844 587.199219 301.390625 578.5 302.789062 C 540.101562 309.1875 520.699219 323.890625 511.101562 353.988281 C 506.5 368.1875 505.902344 374.789062 505.300781 413.1875 L 504.800781 449.988281 L 652.199219 449.988281 L 651.597656 452.6875 C 650.398438 458.1875 626.996094 586.085938 626.996094 586.988281 C 626.996094 587.589844 603.894531 587.988281 565.996094 587.988281 L 504.996094 587.988281 L 504.996094 741.988281 C 504.996094 844.6875 505.296875 895.988281 505.996094 895.988281 C 506.597656 895.988281 511.597656 895.289062 517.296875 894.488281 C 659.996094 873.1875 785.398438 782.488281 850.898438 652.988281 C 886.097656 583.589844 901.898438 509.789062 898.796875 430.386719 C 893.796875 300.585938 830.996094 177.988281 727.996094 96.785156 C 663.394531 45.886719 583.597656 12.785156 502.996094 3.585938 C 490.894531 2.1875 483.894531 1.785156 455.496094 0.585938 C 451.097656 0.484375 439.394531 0.6875 429.496094 1.085938 Z M 429.5 1.101562" fill="currentColor" />
</svg>